<svg width="33" height="32" fill="none" xmlns="http://www.w3.org/2000/svg"><path d="m16.062 10.027.787 1.84a.4.4 0 0 0 .346.266l2 .187c.427.04.587.56.28.84l-1.507 1.32a.413.413 0 0 0-.133.413l.44 1.96a.483.483 0 0 1-.72.52l-1.72-1.026a.433.433 0 0 0-.44 0l-1.72 1.026c-.36.214-.813-.106-.72-.52l.44-1.96a.413.413 0 0 0-.133-.413l-1.507-1.32a.48.48 0 0 1 .28-.84l2-.187a.427.427 0 0 0 .36-.253l.787-1.84c.16-.4.707-.4.88-.013Z" stroke="#F44335" stroke-width="1.333" stroke-miterlimit="10" stroke-linecap="round" stroke-linejoin="round"/><path d="M24.685 13.926a9.067 9.067 0 1 0-18.133-.125 9.067 9.067 0 0 0 18.133.125Z" stroke="#F44335" stroke-width="1.333" stroke-miterlimit="10" stroke-linecap="round" stroke-linejoin="round"/><path d="m14.382 22.84-2.254 5.667-2.853-3.267-4.307.4 2.854-7.147M16.835 22.84l2.267 5.667 2.84-3.267 4.32.4-2.867-7.147" stroke="#F44335" stroke-width="1.333" stroke-miterlimit="10" stroke-linecap="round" stroke-linejoin="round"/></svg>