<svg width="68" height="64" fill="none" xmlns="http://www.w3.org/2000/svg"><rect x=".141" width="67.17" height="64" rx="20" fill="#E8F2FF"/><rect x=".141" width="67.17" height="64" rx="20" fill="#fff"/><path d="M49.082 35.128h-2.154v-16.4c-.006-1.066-.913-1.927-2.031-1.928H22.555c-1.124.001-2.032.87-2.032 1.94v16.4H18.37c-.464 0-.84.358-.84.8v9.32c0 1.07.909 1.938 2.032 1.94h28.327c1.124-.002 2.032-.87 2.032-1.94v-9.332a.78.78 0 0 0-.244-.566.865.865 0 0 0-.595-.234Zm-26.868-16.4a.35.35 0 0 1 .354-.34h22.329a.35.35 0 0 1 .352.34v16.4H42.73c-.414-.005-.772.281-.84.672l-.457 2.692H26.027l-.458-2.692a.83.83 0 0 0-.84-.672h-2.518l.003-16.4Zm26.028 26.52a.347.347 0 0 1-.353.34H19.562a.347.347 0 0 1-.353-.34v-8.52h4.815l.466 2.692a.83.83 0 0 0 .84.672h16.835c.415.005.772-.281.84-.672l.457-2.692h4.78v8.52Z" fill="#00FF84"/><path d="M35.884 41.86h-4.316c-.464 0-.84.358-.84.8 0 .441.376.8.84.8h4.316c.464 0 .84-.359.84-.8 0-.441-.376-.8-.84-.8ZM30.741 27.092l2.145-2.433v9.772c0 .442.376.8.84.8.464 0 .84-.358.84-.8V24.66l2.145 2.431v.002c.16.18.395.284.642.284a.88.88 0 0 0 .538-.176.775.775 0 0 0 .105-1.124l-3.627-4.128a.893.893 0 0 0-.643-.27.893.893 0 0 0-.643.27l-3.627 4.116a.777.777 0 0 0 .126 1.1.87.87 0 0 0 1.16-.072Z" fill="#00FF84"/></svg>