<svg width="214" height="214" fill="none" xmlns="http://www.w3.org/2000/svg"><circle cx="4.276" cy="4.276" r="4.276" fill="#00FF84" fill-opacity=".2"/><circle cx="29.934" cy="4.277" r="4.276" fill="#00FF84" fill-opacity=".2"/><circle cx="55.591" cy="4.277" r="4.276" fill="#00FF84" fill-opacity=".2"/><circle cx="81.249" cy="4.277" r="4.276" fill="#00FF84" fill-opacity=".2"/><circle cx="106.906" cy="4.277" r="4.276" fill="#00FF84" fill-opacity=".2"/><circle cx="132.563" cy="4.277" r="4.276" fill="#00FF84" fill-opacity=".2"/><circle cx="158.219" cy="4.277" r="4.276" fill="#00FF84" fill-opacity=".2"/><circle cx="183.879" cy="4.277" r="4.276" fill="#00FF84" fill-opacity=".2"/><circle cx="209.535" cy="4.277" r="4.276" fill="#00FF84" fill-opacity=".2"/><circle cx="4.277" cy="29.935" r="4.276" fill="#00FF84" fill-opacity=".2"/><circle cx="4.277" cy="55.591" r="4.276" fill="#00FF84" fill-opacity=".2"/><circle cx="4.277" cy="81.248" r="4.276" fill="#00FF84" fill-opacity=".2"/><circle cx="4.277" cy="106.904" r="4.276" fill="#00FF84" fill-opacity=".2"/><circle cx="4.277" cy="132.562" r="4.276" fill="#00FF84" fill-opacity=".2"/><circle cx="4.277" cy="158.221" r="4.276" fill="#00FF84" fill-opacity=".2"/><circle cx="4.277" cy="183.877" r="4.276" fill="#00FF84" fill-opacity=".2"/><circle cx="4.277" cy="209.534" r="4.276" fill="#00FF84" fill-opacity=".2"/><circle cx="29.934" cy="29.935" r="4.276" fill="#00FF84" fill-opacity=".2"/><circle cx="29.934" cy="55.591" r="4.276" fill="#00FF84" fill-opacity=".2"/><circle cx="29.934" cy="81.248" r="4.276" fill="#00FF84" fill-opacity=".2"/><circle cx="29.934" cy="106.904" r="4.276" fill="#00FF84" fill-opacity=".2"/><circle cx="29.934" cy="132.562" r="4.276" fill="#00FF84" fill-opacity=".2"/><circle cx="29.934" cy="158.221" r="4.276" fill="#00FF84" fill-opacity=".2"/><circle cx="29.934" cy="183.877" r="4.276" fill="#00FF84" fill-opacity=".2"/><circle cx="29.934" cy="209.534" r="4.276" fill="#00FF84" fill-opacity=".2"/><circle cx="55.591" cy="29.935" r="4.276" fill="#00FF84" fill-opacity=".2"/><circle cx="55.591" cy="55.591" r="4.276" fill="#00FF84" fill-opacity=".2"/><circle cx="55.591" cy="81.248" r="4.276" fill="#00FF84" fill-opacity=".2"/><circle cx="55.591" cy="106.904" r="4.276" fill="#00FF84" fill-opacity=".2"/><circle cx="55.591" cy="132.562" r="4.276" fill="#00FF84" fill-opacity=".2"/><circle cx="55.591" cy="158.221" r="4.276" fill="#00FF84" fill-opacity=".2"/><circle cx="55.591" cy="183.877" r="4.276" fill="#00FF84" fill-opacity=".2"/><circle cx="55.591" cy="209.534" r="4.276" fill="#00FF84" fill-opacity=".2"/><circle cx="81.249" cy="29.935" r="4.276" fill="#00FF84" fill-opacity=".2"/><circle cx="81.249" cy="55.591" r="4.276" fill="#00FF84" fill-opacity=".2"/><circle cx="81.249" cy="81.248" r="4.276" fill="#00FF84" fill-opacity=".2"/><circle cx="81.249" cy="106.904" r="4.276" fill="#00FF84" fill-opacity=".2"/><circle cx="81.249" cy="132.562" r="4.276" fill="#00FF84" fill-opacity=".2"/><circle cx="81.249" cy="158.221" r="4.276" fill="#00FF84" fill-opacity=".2"/><circle cx="81.249" cy="183.877" r="4.276" fill="#00FF84" fill-opacity=".2"/><circle cx="81.249" cy="209.534" r="4.276" fill="#00FF84" fill-opacity=".2"/><circle cx="106.906" cy="29.935" r="4.276" fill="#00FF84" fill-opacity=".2"/><circle cx="106.906" cy="55.591" r="4.276" fill="#00FF84" fill-opacity=".2"/><circle cx="106.906" cy="81.248" r="4.276" fill="#00FF84" fill-opacity=".2"/><circle cx="106.906" cy="106.904" r="4.276" fill="#00FF84" fill-opacity=".2"/><circle cx="106.906" cy="132.562" r="4.276" fill="#00FF84" fill-opacity=".2"/><circle cx="106.906" cy="158.221" r="4.276" fill="#00FF84" fill-opacity=".2"/><circle cx="106.906" cy="183.877" r="4.276" fill="#00FF84" fill-opacity=".2"/><circle cx="106.906" cy="209.534" r="4.276" fill="#00FF84" fill-opacity=".2"/><circle cx="132.563" cy="29.935" r="4.276" fill="#00FF84" fill-opacity=".2"/><circle cx="132.563" cy="55.591" r="4.276" fill="#00FF84" fill-opacity=".2"/><circle cx="132.563" cy="81.248" r="4.276" fill="#00FF84" fill-opacity=".2"/><circle cx="132.563" cy="106.904" r="4.276" fill="#00FF84" fill-opacity=".2"/><circle cx="132.563" cy="132.562" r="4.276" fill="#00FF84" fill-opacity=".2"/><circle cx="132.563" cy="158.221" r="4.276" fill="#00FF84" fill-opacity=".2"/><circle cx="132.563" cy="183.877" r="4.276" fill="#00FF84" fill-opacity=".2"/><circle cx="132.563" cy="209.534" r="4.276" fill="#00FF84" fill-opacity=".2"/><circle cx="158.219" cy="29.935" r="4.276" fill="#00FF84" fill-opacity=".2"/><circle cx="158.219" cy="55.591" r="4.276" fill="#00FF84" fill-opacity=".2"/><circle cx="158.219" cy="81.248" r="4.276" fill="#00FF84" fill-opacity=".2"/><circle cx="158.219" cy="106.904" r="4.276" fill="#00FF84" fill-opacity=".2"/><circle cx="158.219" cy="132.562" r="4.276" fill="#00FF84" fill-opacity=".2"/><circle cx="158.219" cy="158.221" r="4.276" fill="#00FF84" fill-opacity=".2"/><circle cx="158.219" cy="183.877" r="4.276" fill="#00FF84" fill-opacity=".2"/><circle cx="158.219" cy="209.534" r="4.276" fill="#00FF84" fill-opacity=".2"/><circle cx="183.879" cy="29.935" r="4.276" fill="#00FF84" fill-opacity=".2"/><circle cx="183.879" cy="55.591" r="4.276" fill="#00FF84" fill-opacity=".2"/><circle cx="183.879" cy="81.248" r="4.276" fill="#00FF84" fill-opacity=".2"/><circle cx="183.879" cy="106.904" r="4.276" fill="#00FF84" fill-opacity=".2"/><circle cx="183.879" cy="132.562" r="4.276" fill="#00FF84" fill-opacity=".2"/><circle cx="183.879" cy="158.221" r="4.276" fill="#00FF84" fill-opacity=".2"/><circle cx="183.879" cy="183.877" r="4.276" fill="#00FF84" fill-opacity=".2"/><circle cx="183.879" cy="209.534" r="4.276" fill="#00FF84" fill-opacity=".2"/><circle cx="209.535" cy="29.935" r="4.276" fill="#00FF84" fill-opacity=".2"/><circle cx="209.535" cy="55.591" r="4.276" fill="#00FF84" fill-opacity=".2"/><circle cx="209.535" cy="81.248" r="4.276" fill="#00FF84" fill-opacity=".2"/><circle cx="209.535" cy="106.904" r="4.276" fill="#00FF84" fill-opacity=".2"/><circle cx="209.535" cy="132.562" r="4.276" fill="#00FF84" fill-opacity=".2"/><circle cx="209.535" cy="158.221" r="4.276" fill="#00FF84" fill-opacity=".2"/><circle cx="209.535" cy="183.877" r="4.276" fill="#00FF84" fill-opacity=".2"/><circle cx="209.535" cy="209.534" r="4.276" fill="#00FF84" fill-opacity=".2"/></svg>