<svg width="68" height="64" fill="none" xmlns="http://www.w3.org/2000/svg"><rect width="67.17" height="64" rx="20" fill="#E8F2FF"/><rect width="67.17" height="64" rx="20" fill="#fff"/><path d="M43.59 28.907c0-5.25-4.495-9.534-10.005-9.534-5.51 0-10.006 4.284-10.006 9.534 0 .756.088 1.513.308 2.267.266 1.218.75 1.974 1.41 3.024.133.253.309.504.486.797.22.337.396.673.617.967.881 1.386 1.41 2.183 1.41 3.822v3.948c0 1.007.749 1.806 1.763 1.973.44 2.143 1.763 3.487 4.012 3.487 2.249 0 3.614-1.344 4.012-3.487 1.014-.167 1.763-1.007 1.763-1.973v-3.948c0-1.637.529-2.477 1.41-3.822.176-.294.397-.63.617-.967.176-.293.353-.546.486-.797.66-1.05 1.146-1.806 1.41-3.024.22-.754.308-1.51.308-2.267Zm-5.95 11.887h-8.022v-.967c0-.21 0-.377-.045-.546h8.067c0 .167-.045.336-.045.546l.002.967h.043Zm-.396 3.319h-7.318a.34.34 0 0 1-.353-.337v-1.303h8.022v1.303c.045.167-.131.336-.351.336Zm-3.66 3.443c-.485 0-1.718 0-2.203-1.764h4.453c-.486 1.764-1.763 1.764-2.249 1.764Zm7.98-16.716c-.22.923-.573 1.553-1.19 2.52-.175.252-.308.503-.485.797-.22.336-.396.673-.574.924-.528.84-1.014 1.596-1.322 2.477h-8.728c-.309-.883-.75-1.637-1.323-2.477-.175-.294-.396-.588-.573-.924a42.483 42.483 0 0 0-.486-.797c-.616-1.008-.97-1.597-1.19-2.563a7.014 7.014 0 0 1-.265-1.89c0-4.326 3.702-7.854 8.243-7.854 4.54 0 8.242 3.528 8.242 7.854-.086.63-.173 1.26-.349 1.933ZM51.746 28.067h-3.66c-.485 0-.881.378-.881.84 0 .463.396.84.882.84h3.659c.485 0 .881-.377.881-.84 0-.46-.396-.84-.881-.84ZM43.811 20.003c.22 0 .441-.083.617-.252l2.6-2.477a.786.786 0 0 0 0-1.177.882.882 0 0 0-1.235 0l-2.6 2.477a.786.786 0 0 0 0 1.177.892.892 0 0 0 .618.252ZM33.585 15.93c.486 0 .882-.377.882-.84v-3.486c0-.463-.396-.84-.882-.84s-.882.377-.882.84v3.486c0 .463.396.84.882.84ZM22.74 19.753a.892.892 0 0 0 .617.253c.22 0 .44-.084.616-.253a.786.786 0 0 0 0-1.177l-2.6-2.477a.881.881 0 0 0-1.234 0 .786.786 0 0 0 0 1.177l2.601 2.477ZM19.126 28.067h-3.659c-.485 0-.881.378-.881.84 0 .463.396.84.881.84h3.66c.485 0 .88-.377.88-.84 0-.46-.395-.84-.88-.84ZM22.74 38.063l-2.6 2.478a.786.786 0 0 0 0 1.176.893.893 0 0 0 .617.253c.22 0 .44-.084.616-.253l2.6-2.477a.786.786 0 0 0 0-1.177c-.351-.336-.923-.336-1.233 0ZM44.43 38.063a.882.882 0 0 0-1.235 0 .786.786 0 0 0 0 1.177l2.6 2.477a.893.893 0 0 0 .616.253c.22 0 .441-.084.617-.253a.786.786 0 0 0 0-1.176l-2.598-2.477Z" fill="#00FF84"/></svg>