<svg width="68" height="64" fill="none" xmlns="http://www.w3.org/2000/svg"><rect x=".249" width="67.17" height="64" rx="20" fill="#E8F2FF"/><rect x=".249" width="67.17" height="64" rx="20" fill="#fff"/><path d="m49.911 22.103-5.69-5.422a.626.626 0 0 0-.438-.173.629.629 0 0 0-.438.173l-9.08 8.65.877.835 8.64-8.233 4.814 4.587-1.506 1.435-2.727-2.6a.643.643 0 0 0-.876 0 .569.569 0 0 0 0 .834l2.728 2.6-1.726 1.644-1.721-1.64a.636.636 0 0 0-.876 0 .57.57 0 0 0 0 .834l1.722 1.64-1.725 1.644-2.73-2.6a.64.64 0 0 0-.875 0 .57.57 0 0 0 0 .834l2.729 2.6-1.053 1.003.876.835 9.08-8.65a.57.57 0 0 0-.005-.83ZM31.474 38.834l-2.727-2.598a.64.64 0 0 0-.876 0 .569.569 0 0 0 0 .834l2.727 2.599-1.725 1.645-1.722-1.64a.642.642 0 0 0-.877 0 .57.57 0 0 0 0 .834l1.722 1.64-1.726 1.643-2.727-2.597a.638.638 0 0 0-.877 0 .569.569 0 0 0 0 .834l2.727 2.599-1.505 1.435-4.813-4.589 8.639-8.23-.876-.835-9.079 8.648a.57.57 0 0 0 0 .835l5.69 5.423a.64.64 0 0 0 .877 0l9.078-8.65-.877-.834-1.053 1.004ZM47.137 39.266l-20.528-19.56-1.371-1.309c-.971-.928-2.632-.984-3.531-.125l-2.281 2.175c-.935.89-.874 2.4.133 3.361l21.9 20.869c.286.269.761.715 5.988 1.844.108.021.216.034.325.034.364 0 .703-.131.954-.372.321-.31.45-.76.348-1.21-1.184-4.988-1.657-5.438-1.937-5.707ZM20.436 22.972c-.527-.5-.587-1.26-.135-1.692l2.28-2.172c.195-.188.469-.29.767-.29.364 0 .733.15 1.01.415l.935.89-3.924 3.74-.933-.89Zm20.866 18.353a.638.638 0 0 0-.614.14.575.575 0 0 0-.164.582l.028.096-18.306-17.446 3.926-3.739L44.36 38.291a.642.642 0 0 0-.593.145.571.571 0 0 0-.163.578l.323 1.11-1.085-.316a.636.636 0 0 0-.614.144.57.57 0 0 0-.164.581l.323 1.106-1.085-.314Zm1.033 2.516-.312-1.072 1.08.316c.219.06.462.003.622-.152a.57.57 0 0 0 .158-.577l-.322-1.103 1.083.315c.215.064.45.007.613-.144a.57.57 0 0 0 .164-.578l-.326-1.12 1.085.302.082.077c.089.084.246.347.489 1.047l-3.31 3.156c-.74-.236-1.015-.383-1.106-.467Zm5.511 1.512a.115.115 0 0 1-.072.022l-.049-.008a75.402 75.402 0 0 1-2.934-.682l2.359-2.247c.2.706.436 1.612.718 2.792.008.053 0 .102-.022.123Z" fill="#00FF84"/></svg>