<svg width="31" height="31" fill="none" xmlns="http://www.w3.org/2000/svg"><circle opacity=".1" cx="15.444" cy="15.222" r="15" fill="#00FF84"/><g clip-path="url('#clip0_1_642')"><path d="M19.668 19.448H17.89v-2.784c0-.664-.013-1.519-.926-1.519-.926 0-1.068.723-1.068 1.47v2.833H14.12v-5.726h1.707v.78h.023c.239-.449.819-.924 1.685-.924 1.8 0 2.134 1.185 2.134 2.727v3.143h-.001Zm-7.555-6.509a1.029 1.029 0 0 1-1.032-1.033 1.032 1.032 0 1 1 1.032 1.033Zm.89 6.51h-1.781v-5.727h1.783v5.726h-.001Zm7.555-10.227H10.33a.874.874 0 0 0-.886.865v10.27c0 .479.396.865.885.865h10.225c.49 0 .89-.386.89-.864v-10.27c0-.479-.4-.866-.89-.866h.002Z" fill="#00FF84"/></g><defs><clipPath id="clip0_1_642"><path fill="#fff" d="M7.445 7.222h16v16h-16z"/></clipPath></defs></svg>