<svg width="16" height="13" fill="none" xmlns="http://www.w3.org/2000/svg"><path fill-rule="evenodd" clip-rule="evenodd" d="M15.938 3.023v7.055a2.625 2.625 0 0 1-2.626 2.625h-10.5a2.625 2.625 0 0 1-2.624-2.625V3.023c0-.366.18-.709.48-.919L2.585.77a.375.375 0 1 1 .429.616L1.097 2.72a.37.37 0 0 0-.16.297 1.123 1.123 0 0 1 .946.092l6.18 3.636 6.179-3.636c.298-.176.643-.198.945-.091a.37.37 0 0 0-.159-.298l-1.862-1.296a.375.375 0 1 1 .429-.615l1.862 1.295c.301.21.48.553.48.92Z" fill="#01FF85"/></svg>